<svg xmlns="http://www.w3.org/2000/svg" viewBox="0 0 400 220" role="img" aria-label="Property viewer thumbnail">
  <defs>
    <linearGradient id="skyA" x1="0" y1="0" x2="0" y2="1">
      <stop offset="0" stop-color="#e8f0f7"/>
      <stop offset="1" stop-color="#c7dbe9"/>
    </linearGradient>
    <pattern id="gridA" width="40" height="40" patternUnits="userSpaceOnUse">
      <path d="M40 0H0V40" fill="none" stroke="#b8c9d6" stroke-width="0.6"/>
    </pattern>
  </defs>
  <rect width="400" height="220" fill="url(#skyA)"/>
  <rect width="400" height="220" fill="url(#gridA)"/>
  <g stroke="#2e5d85" stroke-width="1.2" fill="#7ca7c8" fill-opacity="0.55">
    <polygon points="40,120 110,100 140,140 70,160"/>
    <polygon points="150,90 210,85 230,130 170,140"/>
    <polygon points="240,100 300,95 310,150 250,155"/>
    <polygon points="320,115 370,110 380,160 330,165"/>
    <polygon points="80,170 160,165 175,200 90,205"/>
    <polygon points="200,155 280,160 290,195 210,200"/>
  </g>
  <g fill="#c8102e">
    <circle cx="125" cy="130" r="5"/>
    <circle cx="195" cy="115" r="5"/>
    <circle cx="275" cy="125" r="5"/>
    <circle cx="355" cy="140" r="5"/>
    <circle cx="130" cy="185" r="5"/>
    <circle cx="245" cy="180" r="5"/>
  </g>
  <rect x="20" y="20" width="110" height="24" rx="4" fill="#ffffff" fill-opacity="0.9"/>
  <text x="30" y="37" font-family="system-ui,sans-serif" font-size="12" fill="#2e5d85" font-weight="600">Property Viewer</text>
</svg>
